<svg width="367" height="124" viewBox="0 0 367 124" fill="none" xmlns="http://www.w3.org/2000/svg">
<rect x="76" y="2" width="244" height="64" rx="20" fill="white" fill-opacity="0.8"/>
<path d="M107.8 41.18C106.427 41.18 105.233 40.8867 104.22 40.3C103.22 39.7133 102.447 38.8733 101.9 37.78C101.353 36.6867 101.08 35.4067 101.08 33.94C101.08 32.4733 101.347 31.2 101.88 30.12C102.427 29.0267 103.207 28.1867 104.22 27.6C105.233 27.0133 106.427 26.72 107.8 26.72C109.173 26.72 110.36 27.0133 111.36 27.6C112.373 28.1867 113.147 29.0267 113.68 30.12C114.227 31.2 114.5 32.4733 114.5 33.94C114.5 35.4067 114.227 36.6867 113.68 37.78C113.133 38.8733 112.353 39.7133 111.34 40.3C110.34 40.8867 109.16 41.18 107.8 41.18ZM107.8 39.12C109.093 39.12 110.1 38.6733 110.82 37.78C111.553 36.8867 111.92 35.6067 111.92 33.94C111.92 32.2733 111.553 31 110.82 30.12C110.1 29.2267 109.093 28.78 107.8 28.78C106.493 28.78 105.473 29.2267 104.74 30.12C104.02 31 103.66 32.2733 103.66 33.94C103.66 35.6067 104.02 36.8867 104.74 37.78C105.473 38.6733 106.493 39.12 107.8 39.12ZM122.346 31.02C122.693 30.9933 122.966 31.0667 123.166 31.24C123.366 31.4133 123.466 31.6733 123.466 32.02C123.466 32.38 123.379 32.6467 123.206 32.82C123.033 32.9933 122.719 33.1067 122.266 33.16L121.666 33.22C120.879 33.3 120.299 33.5667 119.926 34.02C119.566 34.4733 119.386 35.04 119.386 35.72V39.92C119.386 40.3067 119.266 40.6067 119.026 40.82C118.786 41.02 118.486 41.12 118.126 41.12C117.766 41.12 117.466 41.02 117.226 40.82C116.999 40.6067 116.886 40.3067 116.886 39.92V32.18C116.886 31.8067 116.999 31.52 117.226 31.32C117.466 31.12 117.759 31.02 118.106 31.02C118.453 31.02 118.733 31.12 118.946 31.32C119.159 31.5067 119.266 31.78 119.266 32.14V32.94C119.519 32.3533 119.893 31.9 120.386 31.58C120.893 31.26 121.453 31.08 122.066 31.04L122.346 31.02ZM130.381 28.76C129.767 28.8 129.321 28.9867 129.041 29.32C128.761 29.6533 128.621 30.1333 128.621 30.76V31.22H130.321C131.067 31.22 131.441 31.5333 131.441 32.16C131.441 32.7867 131.067 33.1 130.321 33.1H128.621V39.92C128.621 40.3067 128.501 40.6 128.261 40.8C128.034 41 127.741 41.1 127.381 41.1C127.021 41.1 126.721 41 126.481 40.8C126.241 40.6 126.121 40.3067 126.121 39.92V33.1H125.121C124.374 33.1 124.001 32.7867 124.001 32.16C124.001 31.5333 124.374 31.22 125.121 31.22H126.121V31.08C126.121 29.8267 126.447 28.8467 127.101 28.14C127.767 27.42 128.701 27.0133 129.901 26.92L130.421 26.88C130.954 26.84 131.327 26.9 131.541 27.06C131.767 27.2067 131.881 27.44 131.881 27.76C131.881 28.3333 131.554 28.6533 130.901 28.72L130.381 28.76ZM133.242 41.12C132.815 41.12 132.462 40.98 132.182 40.7C131.902 40.4067 131.762 40.0467 131.762 39.62C131.762 39.1933 131.902 38.84 132.182 38.56C132.462 38.2667 132.815 38.12 133.242 38.12C133.669 38.12 134.022 38.2667 134.302 38.56C134.582 38.84 134.722 39.1933 134.722 39.62C134.722 40.0467 134.582 40.4067 134.302 40.7C134.022 40.98 133.669 41.12 133.242 41.12ZM143.912 41C143.526 41 143.219 40.8933 142.992 40.68C142.779 40.4667 142.672 40.1667 142.672 39.78V28.12C142.672 27.7333 142.779 27.4333 142.992 27.22C143.219 27.0067 143.526 26.9 143.912 26.9H151.132C151.519 26.9 151.819 26.9867 152.032 27.16C152.246 27.3333 152.352 27.58 152.352 27.9C152.352 28.2333 152.246 28.4933 152.032 28.68C151.819 28.8533 151.519 28.94 151.132 28.94H145.192V32.82H150.732C151.119 32.82 151.419 32.9067 151.632 33.08C151.846 33.2533 151.952 33.5067 151.952 33.84C151.952 34.16 151.846 34.4067 151.632 34.58C151.419 34.7533 151.119 34.84 150.732 34.84H145.192V38.96H151.132C151.519 38.96 151.819 39.0533 152.032 39.24C152.246 39.4133 152.352 39.6667 152.352 40C152.352 40.32 152.246 40.5667 152.032 40.74C151.819 40.9133 151.519 41 151.132 41H143.912ZM157.77 41.16C156.316 41.16 155.143 40.8733 154.25 40.3C153.823 40.0467 153.61 39.6867 153.61 39.22C153.61 38.9533 153.683 38.74 153.83 38.58C153.976 38.4067 154.156 38.32 154.37 38.32C154.596 38.32 154.91 38.4267 155.31 38.64C155.736 38.84 156.123 38.9933 156.47 39.1C156.83 39.2067 157.283 39.26 157.83 39.26C158.39 39.26 158.823 39.1667 159.13 38.98C159.45 38.7933 159.61 38.5333 159.61 38.2C159.61 37.9733 159.543 37.7933 159.41 37.66C159.29 37.5267 159.063 37.4067 158.73 37.3C158.41 37.18 157.916 37.0467 157.25 36.9C156.063 36.66 155.21 36.32 154.69 35.88C154.183 35.44 153.93 34.8333 153.93 34.06C153.93 33.4733 154.103 32.9467 154.45 32.48C154.796 32 155.27 31.6333 155.87 31.38C156.483 31.1133 157.176 30.98 157.95 30.98C158.51 30.98 159.05 31.0533 159.57 31.2C160.09 31.3333 160.556 31.5333 160.97 31.8C161.396 32.0667 161.61 32.42 161.61 32.86C161.61 33.1267 161.536 33.3533 161.39 33.54C161.243 33.7133 161.063 33.8 160.85 33.8C160.703 33.8 160.556 33.7733 160.41 33.72C160.276 33.6533 160.103 33.56 159.89 33.44C159.503 33.24 159.17 33.0933 158.89 33C158.61 32.8933 158.263 32.84 157.85 32.84C157.356 32.84 156.963 32.94 156.67 33.14C156.39 33.34 156.25 33.6133 156.25 33.96C156.25 34.2933 156.396 34.5467 156.69 34.72C156.983 34.8933 157.55 35.0667 158.39 35.24C159.283 35.4267 159.983 35.64 160.49 35.88C160.996 36.12 161.356 36.42 161.57 36.78C161.796 37.14 161.91 37.6 161.91 38.16C161.91 39.0667 161.53 39.7933 160.77 40.34C160.023 40.8867 159.023 41.16 157.77 41.16ZM169.557 30.98C170.397 30.98 171.144 31.1933 171.797 31.62C172.464 32.0467 172.977 32.6533 173.337 33.44C173.71 34.2133 173.897 35.1067 173.897 36.12C173.897 37.1333 173.71 38.02 173.337 38.78C172.977 39.54 172.47 40.1267 171.817 40.54C171.164 40.9533 170.41 41.16 169.557 41.16C168.864 41.16 168.244 41.0133 167.697 40.72C167.15 40.4267 166.73 40.02 166.437 39.5V43.58C166.437 43.9267 166.324 44.2 166.097 44.4C165.87 44.6 165.57 44.7 165.197 44.7C164.824 44.7 164.517 44.5933 164.277 44.38C164.05 44.1667 163.937 43.8867 163.937 43.54V32.2C163.937 31.84 164.044 31.5533 164.257 31.34C164.484 31.1267 164.784 31.02 165.157 31.02C165.53 31.02 165.83 31.1267 166.057 31.34C166.284 31.5533 166.397 31.84 166.397 32.2V32.7C166.69 32.1533 167.11 31.7333 167.657 31.44C168.217 31.1333 168.85 30.98 169.557 30.98ZM168.897 39.22C169.684 39.22 170.297 38.9533 170.737 38.42C171.177 37.8733 171.397 37.1067 171.397 36.12C171.397 35.1067 171.177 34.32 170.737 33.76C170.297 33.2 169.684 32.92 168.897 32.92C168.097 32.92 167.477 33.1933 167.037 33.74C166.61 34.2867 166.397 35.0667 166.397 36.08C166.397 37.08 166.61 37.8533 167.037 38.4C167.477 38.9467 168.097 39.22 168.897 39.22ZM183.689 38.32C183.915 38.32 184.095 38.4067 184.229 38.58C184.375 38.7533 184.449 38.9867 184.449 39.28C184.449 39.6933 184.202 40.04 183.709 40.32C183.255 40.5733 182.742 40.78 182.169 40.94C181.595 41.0867 181.049 41.16 180.529 41.16C178.955 41.16 177.709 40.7067 176.789 39.8C175.869 38.8933 175.409 37.6533 175.409 36.08C175.409 35.08 175.609 34.1933 176.009 33.42C176.409 32.6467 176.969 32.0467 177.689 31.62C178.422 31.1933 179.249 30.98 180.169 30.98C181.049 30.98 181.815 31.1733 182.469 31.56C183.122 31.9467 183.629 32.4933 183.989 33.2C184.349 33.9067 184.529 34.74 184.529 35.7C184.529 36.2733 184.275 36.56 183.769 36.56H177.869C177.949 37.48 178.209 38.16 178.649 38.6C179.089 39.0267 179.729 39.24 180.569 39.24C180.995 39.24 181.369 39.1867 181.689 39.08C182.022 38.9733 182.395 38.8267 182.809 38.64C183.209 38.4267 183.502 38.32 183.689 38.32ZM180.229 32.74C179.549 32.74 179.002 32.9533 178.589 33.38C178.189 33.8067 177.949 34.42 177.869 35.22H182.389C182.362 34.4067 182.162 33.7933 181.789 33.38C181.415 32.9533 180.895 32.74 180.229 32.74ZM192.034 31.02C192.38 30.9933 192.654 31.0667 192.854 31.24C193.054 31.4133 193.154 31.6733 193.154 32.02C193.154 32.38 193.067 32.6467 192.894 32.82C192.72 32.9933 192.407 33.1067 191.954 33.16L191.354 33.22C190.567 33.3 189.987 33.5667 189.614 34.02C189.254 34.4733 189.074 35.04 189.074 35.72V39.92C189.074 40.3067 188.954 40.6067 188.714 40.82C188.474 41.02 188.174 41.12 187.814 41.12C187.454 41.12 187.154 41.02 186.914 40.82C186.687 40.6067 186.574 40.3067 186.574 39.92V32.18C186.574 31.8067 186.687 31.52 186.914 31.32C187.154 31.12 187.447 31.02 187.794 31.02C188.14 31.02 188.42 31.12 188.634 31.32C188.847 31.5067 188.954 31.78 188.954 32.14V32.94C189.207 32.3533 189.58 31.9 190.074 31.58C190.58 31.26 191.14 31.08 191.754 31.04L192.034 31.02ZM198.431 30.98C199.791 30.98 200.797 31.32 201.451 32C202.117 32.6667 202.451 33.6867 202.451 35.06V39.94C202.451 40.3 202.344 40.5867 202.131 40.8C201.917 41 201.624 41.1 201.251 41.1C200.904 41.1 200.617 40.9933 200.391 40.78C200.177 40.5667 200.071 40.2867 200.071 39.94V39.5C199.844 40.02 199.484 40.4267 198.991 40.72C198.511 41.0133 197.951 41.16 197.311 41.16C196.657 41.16 196.064 41.0267 195.531 40.76C194.997 40.4933 194.577 40.1267 194.271 39.66C193.964 39.1933 193.811 38.6733 193.811 38.1C193.811 37.38 193.991 36.8133 194.351 36.4C194.724 35.9867 195.324 35.6867 196.151 35.5C196.977 35.3133 198.117 35.22 199.571 35.22H200.071V34.76C200.071 34.1067 199.931 33.6333 199.651 33.34C199.371 33.0333 198.917 32.88 198.291 32.88C197.904 32.88 197.511 32.94 197.111 33.06C196.711 33.1667 196.237 33.3267 195.691 33.54C195.344 33.7133 195.091 33.8 194.931 33.8C194.691 33.8 194.491 33.7133 194.331 33.54C194.184 33.3667 194.111 33.14 194.111 32.86C194.111 32.6333 194.164 32.44 194.271 32.28C194.391 32.1067 194.584 31.9467 194.851 31.8C195.317 31.5467 195.871 31.3467 196.511 31.2C197.164 31.0533 197.804 30.98 198.431 30.98ZM197.811 39.36C198.477 39.36 199.017 39.14 199.431 38.7C199.857 38.2467 200.071 37.6667 200.071 36.96V36.54H199.711C198.817 36.54 198.124 36.58 197.631 36.66C197.137 36.74 196.784 36.88 196.571 37.08C196.357 37.28 196.251 37.5533 196.251 37.9C196.251 38.3267 196.397 38.68 196.691 38.96C196.997 39.2267 197.371 39.36 197.811 39.36ZM210.672 30.98C211.845 30.98 212.718 31.3133 213.292 31.98C213.865 32.6467 214.152 33.6533 214.152 35V39.92C214.152 40.2933 214.038 40.5867 213.812 40.8C213.598 41.0133 213.298 41.12 212.912 41.12C212.525 41.12 212.218 41.0133 211.992 40.8C211.765 40.5867 211.652 40.2933 211.652 39.92V35.14C211.652 34.38 211.505 33.8267 211.212 33.48C210.932 33.1333 210.485 32.96 209.872 32.96C209.152 32.96 208.572 33.1867 208.132 33.64C207.705 34.0933 207.492 34.7 207.492 35.46V39.92C207.492 40.2933 207.378 40.5867 207.152 40.8C206.925 41.0133 206.618 41.12 206.232 41.12C205.845 41.12 205.538 41.0133 205.312 40.8C205.098 40.5867 204.992 40.2933 204.992 39.92V32.18C204.992 31.8333 205.105 31.5533 205.332 31.34C205.558 31.1267 205.865 31.02 206.252 31.02C206.598 31.02 206.878 31.1267 207.092 31.34C207.318 31.54 207.432 31.8067 207.432 32.14V32.68C207.765 32.1333 208.212 31.7133 208.772 31.42C209.332 31.1267 209.965 30.98 210.672 30.98ZM224.031 38.28C224.244 38.28 224.424 38.3733 224.571 38.56C224.717 38.7467 224.791 38.98 224.791 39.26C224.791 39.4867 224.737 39.6867 224.631 39.86C224.537 40.02 224.377 40.1667 224.151 40.3C223.431 40.78 222.557 41.06 221.531 41.14L221.451 41.84C221.664 41.8133 221.817 41.8 221.911 41.8C222.324 41.8 222.671 41.92 222.951 42.16C223.244 42.4133 223.391 42.7533 223.391 43.18C223.391 43.6867 223.164 44.1 222.711 44.42C222.271 44.74 221.644 44.9 220.831 44.9C220.271 44.9 219.804 44.8333 219.431 44.7C219.311 44.6467 219.217 44.5733 219.151 44.48C219.084 44.3867 219.051 44.28 219.051 44.16C219.051 43.9733 219.104 43.82 219.211 43.7C219.331 43.5933 219.484 43.5667 219.671 43.62C220.124 43.7267 220.497 43.78 220.791 43.78C221.457 43.78 221.791 43.58 221.791 43.18C221.791 43.0467 221.744 42.94 221.651 42.86C221.557 42.78 221.424 42.74 221.251 42.74C221.117 42.74 220.944 42.76 220.731 42.8C220.517 42.8533 220.384 42.88 220.331 42.88C220.211 42.88 220.111 42.84 220.031 42.76C219.964 42.6933 219.937 42.6 219.951 42.48L220.111 41.1C218.884 40.9133 217.917 40.38 217.211 39.5C216.504 38.6067 216.151 37.48 216.151 36.12C216.151 35.1067 216.357 34.2133 216.771 33.44C217.197 32.6533 217.791 32.0467 218.551 31.62C219.311 31.1933 220.184 30.98 221.171 30.98C221.691 30.98 222.211 31.0533 222.731 31.2C223.264 31.3467 223.731 31.5467 224.131 31.8C224.557 32.08 224.771 32.4333 224.771 32.86C224.771 33.1533 224.697 33.3933 224.551 33.58C224.417 33.7533 224.237 33.84 224.011 33.84C223.864 33.84 223.711 33.8067 223.551 33.74C223.391 33.6733 223.231 33.5933 223.071 33.5C222.777 33.3267 222.497 33.1933 222.231 33.1C221.964 32.9933 221.657 32.94 221.311 32.94C220.484 32.94 219.844 33.2133 219.391 33.76C218.951 34.2933 218.731 35.0667 218.731 36.08C218.731 37.08 218.951 37.8533 219.391 38.4C219.844 38.9333 220.484 39.2 221.311 39.2C221.644 39.2 221.937 39.1533 222.191 39.06C222.457 38.9533 222.751 38.8133 223.071 38.64C223.271 38.52 223.444 38.4333 223.591 38.38C223.737 38.3133 223.884 38.28 224.031 38.28ZM230.696 30.98C232.056 30.98 233.063 31.32 233.716 32C234.383 32.6667 234.716 33.6867 234.716 35.06V39.94C234.716 40.3 234.61 40.5867 234.396 40.8C234.183 41 233.89 41.1 233.516 41.1C233.17 41.1 232.883 40.9933 232.656 40.78C232.443 40.5667 232.336 40.2867 232.336 39.94V39.5C232.11 40.02 231.75 40.4267 231.256 40.72C230.776 41.0133 230.216 41.16 229.576 41.16C228.923 41.16 228.33 41.0267 227.796 40.76C227.263 40.4933 226.843 40.1267 226.536 39.66C226.23 39.1933 226.076 38.6733 226.076 38.1C226.076 37.38 226.256 36.8133 226.616 36.4C226.99 35.9867 227.59 35.6867 228.416 35.5C229.243 35.3133 230.383 35.22 231.836 35.22H232.336V34.76C232.336 34.1067 232.196 33.6333 231.916 33.34C231.636 33.0333 231.183 32.88 230.556 32.88C230.17 32.88 229.776 32.94 229.376 33.06C228.976 33.1667 228.503 33.3267 227.956 33.54C227.61 33.7133 227.356 33.8 227.196 33.8C226.956 33.8 226.756 33.7133 226.596 33.54C226.45 33.3667 226.376 33.14 226.376 32.86C226.376 32.6333 226.43 32.44 226.536 32.28C226.656 32.1067 226.85 31.9467 227.116 31.8C227.583 31.5467 228.136 31.3467 228.776 31.2C229.43 31.0533 230.07 30.98 230.696 30.98ZM230.076 39.36C230.743 39.36 231.283 39.14 231.696 38.7C232.123 38.2467 232.336 37.6667 232.336 36.96V36.54H231.976C231.083 36.54 230.39 36.58 229.896 36.66C229.403 36.74 229.05 36.88 228.836 37.08C228.623 37.28 228.516 37.5533 228.516 37.9C228.516 38.3267 228.663 38.68 228.956 38.96C229.263 39.2267 229.636 39.36 230.076 39.36Z" fill="#0089A5"/>
<path d="M64 20.271V45.694C64 55.7844 55.5565 63.9651 45.1421 63.9651H43.2347L33.4941 73.3963C33.1127 73.7659 32.5849 74 32 74C31.4596 74 30.97 73.809 30.5949 73.4887L30.4296 73.3285L30.4232 73.3224L20.7653 63.9651H18.8516C8.44347 63.9651 0 55.7844 0 45.694V20.271C0 10.1807 8.44347 2 18.8579 2H45.1421C55.5565 2 64 10.1807 64 20.271Z" fill="#FFD666"/>
<path d="M14.2697 37.219C12.4131 37.219 11.355 39.2687 12.4322 40.7487C16.6205 46.5139 23.5462 50.2728 31.3717 50.2728C39.1972 50.2728 46.1166 46.5077 50.3049 40.7487C51.3821 39.2687 50.3239 37.219 48.4674 37.219H14.2697Z" fill="white"/>
<path d="M25.1432 28.4937H13.9404V23.0196C13.9404 19.9976 16.4497 17.5454 19.5418 17.5454C22.634 17.5454 25.1432 19.9976 25.1432 23.0196V28.4937Z" fill="white"/>
<path d="M48.803 28.4937H37.6002V23.0196C37.6002 19.9976 40.1094 17.5454 43.2016 17.5454C46.2937 17.5454 48.803 19.9976 48.803 23.0196V28.4937Z" fill="white"/>
<g filter="url(#filter0_d)">
<rect x="268" y="14" width="40" height="40" rx="12" fill="#15C3D6"/>
</g>
<path d="M282.167 34H293.833" stroke="white" stroke-width="2" stroke-linecap="round" stroke-linejoin="round"/>
<path d="M288 28.1667L293.833 34.0001L288 39.8334" stroke="white" stroke-width="2" stroke-linecap="round" stroke-linejoin="round"/>
<defs>
<filter id="filter0_d" x="243.798" y="0.170542" width="122.977" height="122.977" filterUnits="userSpaceOnUse" color-interpolation-filters="sRGB">
<feFlood flood-opacity="0" result="BackgroundImageFix"/>
<feColorMatrix in="SourceAlpha" type="matrix" values="0 0 0 0 0 0 0 0 0 0 0 0 0 0 0 0 0 0 127 0"/>
<feOffset dx="17.2868" dy="27.6589"/>
<feGaussianBlur stdDeviation="20.7442"/>
<feColorMatrix type="matrix" values="0 0 0 0 0.089375 0 0 0 0 0.557047 0 0 0 0 0.65 0 0 0 0.16 0"/>
<feBlend mode="normal" in2="BackgroundImageFix" result="effect1_dropShadow"/>
<feBlend mode="normal" in="SourceGraphic" in2="effect1_dropShadow" result="shape"/>
</filter>
</defs>
</svg>
